<svg aria-hidden="true" width="16" height="16" viewBox="0 0 16 16" fill="none" xmlns="http://www.w3.org/2000/svg">
    <path fill-rule="evenodd" clip-rule="evenodd" d="M7.33333 2C7.70152 2 8 2.29848 8 2.66667C8 3.00856 7.74264 3.29034 7.41108 3.32885L7.33333 3.33333H3.33333V12.6667H12.6667V8.66667C12.6667 8.32478 12.924 8.043 13.2556 8.00449L13.3333 8C13.6752 8 13.957 8.25736 13.9955 8.58892L14 8.66667V13.3333C14 13.6752 13.7426 13.957 13.4111 13.9955L13.3333 14H2.66667C2.32478 14 2.043 13.7426 2.00449 13.4111L2 13.3333V2.66667C2 2.32478 2.25736 2.043 2.58892 2.00449L2.66667 2H7.33333ZM13.3333 2C13.6752 2 13.957 2.25736 13.9955 2.58892L14 2.66667V6C14 6.36819 13.7015 6.66667 13.3333 6.66667C12.9914 6.66667 12.7097 6.40931 12.6712 6.07775L12.6667 6V4.276L9.13807 7.80474C8.87772 8.06509 8.45561 8.06509 8.19526 7.80474C7.95494 7.56442 7.93645 7.18626 8.1398 6.92473L8.19526 6.86193L11.7227 3.33333H10C9.65811 3.33333 9.37633 3.07597 9.33782 2.74441L9.33333 2.66667C9.33333 2.32478 9.59069 2.043 9.92225 2.00449L10 2H13.3333Z" fill="white"></path>
</svg>